<svg class="svg-icon" style="width: 1.1025390625em; height: 1em;vertical-align: middle;fill: currentColor;overflow: hidden;" viewBox="0 0 1129 1024" version="1.1" xmlns="http://www.w3.org/2000/svg"><path d="M566.731034 123.586207C347.806897 123.586207 171.255172 301.903448 171.255172 519.062069c0 218.924138 178.317241 395.475862 395.475862 395.475862 218.924138 0 395.475862-178.317241 395.475863-395.475862C962.206897 301.903448 785.655172 123.586207 566.731034 123.586207zM812.137931 709.737931c-10.593103 35.310345-58.262069 86.510345-102.4 86.510345L706.206897 794.482759c-65.324138-3.531034-155.365517-65.324138-238.344828-165.958621l-30.013793-37.075862c-82.97931-100.634483-127.117241-199.503448-116.524138-263.062069 7.062069-45.903448 74.151724-82.97931 112.993103-82.97931 19.42069 0 26.482759 8.827586 28.248276 15.889655 21.186207 38.841379 49.434483 105.931034 49.434483 130.648276v3.531034c-5.296552 12.358621-15.889655 19.42069-24.717241 24.717241-12.358621 7.062069-19.42069 12.358621-21.186207 24.717242 0 3.531034 3.531034 22.951724 58.262069 90.041379l22.951724 28.248276c54.731034 65.324138 72.386207 72.386207 75.917241 72.386207 14.124138 1.765517 19.42069-3.531034 30.013793-14.124138 7.062069-8.827586 15.889655-17.655172 28.248276-19.42069h3.531035c24.717241 5.296552 84.744828 44.137931 120.055172 74.151724 5.296552 1.765517 14.124138 10.593103 7.062069 33.544828z m0 0" fill="#3164AF" /></svg>